<svg id="icons" xmlns="http://www.w3.org/2000/svg" viewBox="0 0 200 200"><defs><style>.cls-1,.cls-7{fill:#2d3138;}.cls-1,.cls-3{stroke:#2d3138;}.cls-1,.cls-3,.cls-5{stroke-linecap:round;stroke-linejoin:round;stroke-width:4px;}.cls-2{fill:#f9d369;}.cls-3,.cls-5{fill:none;}.cls-4{fill:#efae52;}.cls-5{stroke:#fff;}.cls-6{opacity:0.56;}</style></defs><title>dizzy</title><path class="cls-1" d="M178.09,137.68C164.58,150.93,129,164,79.38,164,58,164,36.82,150.93,50.32,137.68S88.9,116,136.29,116,191.59,124.42,178.09,137.68Z"/><path class="cls-2" d="M144,93.81C144,129.15,124.39,164,80,164S16,129.15,16,93.81,32.52,36,80,36,144,58.46,144,93.81Z"/><circle class="cls-1" cx="80" cy="132.67" r="16"/><line class="cls-3" x1="47.25" y1="82.25" x2="67.25" y2="102.25"/><line class="cls-3" x1="47.25" y1="102.25" x2="67.25" y2="82.25"/><line class="cls-3" x1="112.75" y1="82.25" x2="92.75" y2="102.25"/><line class="cls-3" x1="112.75" y1="102.25" x2="92.75" y2="82.25"/><path class="cls-4" d="M115,147c-9.54,5.52-13.28,10.54-14.64,14.17,30.07-9,43.64-38,43.64-67.36C144,58.46,127.48,36,80,36a117.57,117.57,0,0,0-18.2,1.32C67.86,43.44,76.5,49.17,86,46c15-5,36.38,3.06,38,16,1,8,14,15,9,29s5,15-4,30S134,136,115,147Z"/><path class="cls-3" d="M144,93.81C144,129.15,124.39,164,80,164S16,129.15,16,93.81,32.52,36,80,36,144,58.46,144,93.81Z"/><path class="cls-5" d="M28.79,67.54a34.77,34.77,0,0,1,7.05-10.23c.63-.63,1.29-1.24,2-1.82"/><path class="cls-5" d="M54.47,47a53.66,53.66,0,0,0-7.86,2.85"/><g class="cls-6"><path class="cls-7" d="M39.21,71.89A24.35,24.35,0,0,1,51.32,63a25.7,25.7,0,0,1,15.31-.12h0a2,2,0,1,1-1.14,3.84l-.13,0a22.19,22.19,0,0,0-13.2-.8,21.85,21.85,0,0,0-11.38,7.24,1,1,0,0,1-1.58-1.23Z"/></g><g class="cls-6"><path class="cls-7" d="M119.21,73.11a21.85,21.85,0,0,0-11.38-7.24,22.19,22.19,0,0,0-13.2.8,2,2,0,0,1-1.4-3.75l.12,0h0a25.7,25.7,0,0,1,15.31.12,24.35,24.35,0,0,1,12.11,8.89,1,1,0,0,1-1.58,1.23Z"/></g></svg>