<svg id="icons" xmlns="http://www.w3.org/2000/svg" viewBox="0 0 200 200"><defs><style>.cls-1{fill:#2d3138;}.cls-1,.cls-4,.cls-6,.cls-7{stroke:#2d3138;}.cls-1,.cls-4,.cls-5,.cls-6,.cls-7{stroke-linecap:round;stroke-linejoin:round;}.cls-1,.cls-4,.cls-5,.cls-6{stroke-width:4px;}.cls-2{fill:#f9d369;}.cls-3{fill:#efae52;}.cls-4,.cls-5,.cls-7{fill:none;}.cls-5{stroke:#fff;}.cls-6{fill:#fff;}.cls-7{stroke-width:8px;}</style></defs><title>eye-rolling</title><path class="cls-1" d="M178.09,137.68C164.58,150.93,129,164,79.38,164,58,164,36.82,150.93,50.32,137.68S88.9,116,136.29,116,191.59,124.42,178.09,137.68Z"/><path class="cls-2" d="M144,93.81C144,129.15,124.39,164,80,164S16,129.15,16,93.81,32.52,36,80,36,144,58.46,144,93.81Z"/><path class="cls-3" d="M115,147c-9.54,5.52-13.28,10.54-14.64,14.17,30.07-9,43.64-38,43.64-67.36C144,58.46,127.48,36,80,36a117.57,117.57,0,0,0-18.2,1.32C67.86,43.44,76.5,49.17,86,46c15-5,36.38,3.06,38,16,1,8,14,15,9,29s5,15-4,30S134,136,115,147Z"/><path class="cls-4" d="M144,93.81C144,129.15,124.39,164,80,164S16,129.15,16,93.81,32.52,36,80,36,144,58.46,144,93.81Z"/><path class="cls-5" d="M28.79,67.54a34.77,34.77,0,0,1,7.05-10.23c.63-.63,1.29-1.24,2-1.82"/><path class="cls-5" d="M54.47,47a53.66,53.66,0,0,0-7.86,2.85"/><circle class="cls-6" cx="108" cy="99" r="18"/><circle class="cls-1" cx="108" cy="87" r="4"/><circle class="cls-6" cx="52" cy="99" r="18"/><circle class="cls-1" cx="52" cy="87" r="4"/><line class="cls-7" x1="68" y1="140" x2="92" y2="140"/></svg>