<svg id="visual" viewBox="0 0 900 600" width="900" height="600" xmlns="http://www.w3.org/2000/svg" xmlns:xlink="http://www.w3.org/1999/xlink" version="1.1"><rect x="0" y="0" width="900" height="600" fill="#1D1D1D"></rect><path d="M0 442L21.5 439.3C43 436.7 86 431.3 128.8 437C171.7 442.7 214.3 459.3 257.2 461.8C300 464.3 343 452.7 385.8 452.3C428.7 452 471.3 463 514.2 461.3C557 459.7 600 445.3 642.8 442.8C685.7 440.3 728.3 449.7 771.2 446.5C814 443.3 857 427.7 878.5 419.8L900 412L900 601L878.5 601C857 601 814 601 771.2 601C728.3 601 685.7 601 642.8 601C600 601 557 601 514.2 601C471.3 601 428.7 601 385.8 601C343 601 300 601 257.2 601C214.3 601 171.7 601 128.8 601C86 601 43 601 21.5 601L0 601Z" fill="#69e4fa"></path><path d="M0 481L21.5 488.8C43 496.7 86 512.3 128.8 518.8C171.7 525.3 214.3 522.7 257.2 519.8C300 517 343 514 385.8 512.5C428.7 511 471.3 511 514.2 511.2C557 511.3 600 511.7 642.8 503.2C685.7 494.7 728.3 477.3 771.2 469.7C814 462 857 464 878.5 465L900 466L900 601L878.5 601C857 601 814 601 771.2 601C728.3 601 685.7 601 642.8 601C600 601 557 601 514.2 601C471.3 601 428.7 601 385.8 601C343 601 300 601 257.2 601C214.3 601 171.7 601 128.8 601C86 601 43 601 21.5 601L0 601Z" fill="#42b6e3"></path><path d="M0 522L21.5 521.2C43 520.3 86 518.7 128.8 521.2C171.7 523.7 214.3 530.3 257.2 531.8C300 533.3 343 529.7 385.8 533.5C428.7 537.3 471.3 548.7 514.2 549.8C557 551 600 542 642.8 535C685.7 528 728.3 523 771.2 521.7C814 520.3 857 522.7 878.5 523.8L900 525L900 601L878.5 601C857 601 814 601 771.2 601C728.3 601 685.7 601 642.8 601C600 601 557 601 514.2 601C471.3 601 428.7 601 385.8 601C343 601 300 601 257.2 601C214.3 601 171.7 601 128.8 601C86 601 43 601 21.5 601L0 601Z" fill="#3e87c4"></path></svg>