<!-- Generator: Adobe Illustrator 25.2.0, SVG Export Plug-In  -->
<svg version="1.1" xmlns="http://www.w3.org/2000/svg" xmlns:xlink="http://www.w3.org/1999/xlink" x="0px" y="0px" width="180px"
	 height="183px" viewBox="0 0 180 183" style="overflow:visible;enable-background:new 0 0 180 183;" xml:space="preserve">
<style type="text/css">
	.st0{fill:url(#background_2_);}
	.st1{fill:#FFFFFF;}
	.st2{fill:#1C1D1D;}
	.st3{fill:url(#background_3_);}
</style>
<defs>
</defs>
<radialGradient id="background_2_" cx="90" cy="91.5" r="90.7531" gradientUnits="userSpaceOnUse">
	<stop  offset="0" style="stop-color:#1C1D1D"/>
	<stop  offset="1" style="stop-color:#000000"/>
</radialGradient>
<ellipse id="background_1_" class="st0" cx="90" cy="91.5" rx="90" ry="91.5"/>
<path id="main_path_1_" class="st1" d="M37.9,37.4v104c0,2.8,2.3,5.1,5.1,5.1h24.8c2.8,0,5.1-2.3,5.1-5.1V115c0-2.8,2.3-5.1,5.1-5.1
	h7c1.8,0,3.5,1,4.4,2.5l18.2,31.5c0.9,1.6,2.6,2.5,4.4,2.5h25.3c4.1,0,6.6-4.5,4.3-7.9c-2.3-3.6-4.5-7.2-5.1-8.1
	c-5-6.9-10-13.8-15-20.7c-1.6-2.2-1.1-5.3,1.1-6.9c9.6-7.2,18.6-18,18.3-30.2c-0.7-26.1-25.6-35.2-47.9-35.2c-18,0-36.1,0-54.1,0
	C38.5,37.4,38.2,37.4,37.9,37.4z"/>
<path id="middle_circle_1_" class="st2" d="M72.9,61.3c0,4.3,0,20.7,0,24.9c0,0.5,0.4,1,1,1c9.7,0.2,28.1,2.3,32.6-8.7
	c1.7-4.1,0.2-10.1-2.9-13.3c-4.2-4.5-9.9-5.1-16-5c-0.9,0-10.6,0.2-13.8,0.1C73.3,60.3,72.9,60.7,72.9,61.3z"/>
</svg>